<svg width="42" height="36" viewBox="0 0 42 36" fill="none" xmlns="http://www.w3.org/2000/svg">
<path d="M37.4998 26.4544V30.8315C37.5008 31.4334 37.383 32.0297 37.1533 32.586C36.9235 33.1424 36.5863 33.648 36.1609 34.0739C35.7356 34.4998 35.2304 34.8376 34.6743 35.068C34.1182 35.2984 33.5221 35.4169 32.9201 35.4167H9.07948C8.47761 35.4167 7.88164 35.298 7.32565 35.0675C6.76966 34.837 6.26455 34.4992 5.83922 34.0734C5.41389 33.6475 5.07667 33.142 4.84684 32.5858C4.61701 32.0295 4.49909 31.4334 4.49981 30.8315V26.4544L0.93948 10.6603C0.32073 7.42992 2.97265 5.79 5.55398 7.71775L12.3217 12.7759C12.6536 13.0234 12.9185 12.9611 13.1009 12.599L18.1022 2.63209C19.4736 -0.100498 22.527 -0.0977478 23.8965 2.63209L28.8987 12.599C29.0821 12.962 29.3451 13.0234 29.6779 12.7759L36.4456 7.71775C39.027 5.78909 41.6798 7.42625 41.0601 10.6603L37.4998 26.4544ZM7.79981 24.4167H34.1998L37.0323 11.8565L31.8715 15.7129C29.7146 17.3253 26.8298 16.6507 25.6216 14.2435L20.9998 5.03375L16.3771 14.2435C15.1707 16.6479 12.2851 17.3253 10.1272 15.7129L4.96823 11.8574L7.79981 24.4167ZM8.16648 30.8315C8.16575 30.9519 8.18883 31.0712 8.23439 31.1826C8.27995 31.294 8.34709 31.3953 8.43194 31.4806C8.51679 31.566 8.61768 31.6338 8.72881 31.68C8.83994 31.7262 8.95912 31.75 9.07948 31.75H32.9201C33.0406 31.7502 33.1599 31.7266 33.2711 31.6805C33.3823 31.6343 33.4833 31.5666 33.5682 31.4812C33.6531 31.3958 33.7203 31.2944 33.7657 31.1829C33.8112 31.0714 33.8341 30.9519 33.8331 30.8315V28.0833H8.16648V30.8315Z" fill="#FFBE3D"/>
</svg>
