<svg width="22" height="23" viewBox="0 0 22 23" fill="none" xmlns="http://www.w3.org/2000/svg">
<path d="M21.0361 0.742245L21.0096 0.718067C20.5027 0.255032 19.8456 0 19.1593 0C18.39 0 17.6514 0.325671 17.1327 0.893434L7.32589 11.6299C7.23651 11.7278 7.16871 11.8432 7.12679 11.9689L5.97365 15.4259C5.84033 15.8255 5.90724 16.2675 6.15262 16.6082C6.39995 16.9514 6.79841 17.1564 7.21858 17.1564C7.40032 17.1564 7.57802 17.119 7.74651 17.0453L11.0853 15.5847C11.2067 15.5316 11.3156 15.4536 11.4049 15.3558L21.2118 4.61937C22.2323 3.50221 22.1536 1.76307 21.0361 0.742245ZM8.18303 14.7873L8.85969 12.7587L8.91675 12.6963L10.1992 13.8676L10.1422 13.9301L8.18303 14.7873ZM19.8135 3.34212L11.4765 12.4694L10.194 11.2981L18.531 2.17068C18.6941 1.99216 18.9172 1.8938 19.1594 1.8938C19.3718 1.8938 19.5753 1.97284 19.7327 2.11664L19.7592 2.14082C20.1053 2.45702 20.1297 2.99593 19.8135 3.34212Z" fill="#37ABBC"/>
<path d="M19.1333 8.73598C18.6103 8.73598 18.1864 9.15994 18.1864 9.68288V17.7219C18.1864 19.0497 17.1061 20.13 15.7783 20.13H4.3019C2.97403 20.13 1.8938 19.0497 1.8938 17.7219V6.33874C1.8938 5.01093 2.97409 3.93064 4.3019 3.93064H12.6086C13.1315 3.93064 13.5555 3.50668 13.5555 2.98374C13.5555 2.46079 13.1315 2.03683 12.6086 2.03683H4.3019C1.92979 2.03683 0 3.96668 0 6.33874V17.7218C0 20.0939 1.92985 22.0237 4.3019 22.0237H15.7782C18.1503 22.0237 20.0801 20.0939 20.0801 17.7218V9.68288C20.0802 9.15994 19.6562 8.73598 19.1333 8.73598Z" fill="#37ABBC"/>
</svg>
