<svg width="21" height="20" viewBox="0 0 21 20" fill="none" xmlns="http://www.w3.org/2000/svg">
<path d="M17.2942 0H19.7647C20.4441 0 21 0.5625 21 1.25V18.75C21 19.4375 20.4441 20 19.7647 20H17.2942C16.6148 20 16.0589 19.4375 16.0589 18.75C16.0589 18.0625 16.6148 17.5 17.2942 17.5H18.5294V2.5H17.2942C16.6148 2.5 16.0589 1.9375 16.0589 1.25C16.0589 0.5625 16.6148 0 17.2942 0Z" fill="white"/>
<path d="M9.14107 4.0005C9.68953 3.58675 10.4616 3.69925 10.8705 4.2505L14.5763 9.2505C14.8975 9.683 14.9074 10.2755 14.5985 10.7192L11.1225 15.7192C10.8816 16.0655 10.4999 16.2505 10.1108 16.2505C9.86618 16.2505 9.61789 16.1768 9.40171 16.023C8.84337 15.6255 8.70872 14.8455 9.10154 14.2805L11.2238 11.228C11.2071 11.2297 11.1915 11.2344 11.1759 11.2391C11.1569 11.2448 11.1379 11.2505 11.1175 11.2505H1.23528C0.553405 11.2505 0 10.6905 0 10.0005C0 9.30925 0.553405 8.7505 1.23528 8.7505H11.1188L8.89401 5.74925C8.48514 5.198 8.59508 4.41425 9.14107 4.0005Z" fill="white"/>
</svg>
