<svg width="21" height="21" viewBox="0 0 21 21" fill="none" xmlns="http://www.w3.org/2000/svg">
<path fill-rule="evenodd" clip-rule="evenodd" d="M7.73684 9.33333C10.1751 9.33333 12.1579 7.24033 12.1579 4.66667C12.1579 2.093 10.1751 0 7.73684 0C5.29863 0 3.31579 2.093 3.31579 4.66667C3.31579 7.24033 5.29863 9.33333 7.73684 9.33333ZM7.73684 2.33333C8.95595 2.33333 9.94737 3.37983 9.94737 4.66667C9.94737 5.9535 8.95595 7 7.73684 7C6.51774 7 5.52632 5.9535 5.52632 4.66667C5.52632 3.37983 6.51774 2.33333 7.73684 2.33333Z" fill="white"/>
<path d="M7.73684 11.6667C3.47163 11.6667 0 15.33 0 19.8333C0 20.4773 0.494053 21 1.10526 21C1.71647 21 2.21053 20.4773 2.21053 19.8333C2.21053 16.6168 4.68963 14 7.73684 14C10.7841 14 13.2632 16.6168 13.2632 19.8333C13.2632 20.4773 13.7572 21 14.3684 21C14.9796 21 15.4737 20.4773 15.4737 19.8333C15.4737 15.33 12.0021 11.6667 7.73684 11.6667Z" fill="white"/>
<path d="M18.7895 3.5H19.8947C20.5026 3.5 21 4.025 21 4.66667C21 5.30833 20.5026 5.83333 19.8947 5.83333H18.7895V7C18.7895 7.64167 18.2921 8.16667 17.6842 8.16667C17.0763 8.16667 16.5789 7.64167 16.5789 7V5.83333H15.4737C14.8658 5.83333 14.3684 5.30833 14.3684 4.66667C14.3684 4.025 14.8658 3.5 15.4737 3.5H16.5789V2.33333C16.5789 1.69167 17.0763 1.16667 17.6842 1.16667C18.2921 1.16667 18.7895 1.69167 18.7895 2.33333V3.5Z" fill="white"/>
</svg>
